<svg xmlns="http://www.w3.org/2000/svg" xmlns:xlink="http://www.w3.org/1999/xlink" width="122" zoomAndPan="magnify" viewBox="0 0 91.5 91.499997" height="122" preserveAspectRatio="xMidYMid meet" version="1.0"><defs><clipPath id="a09d1b02d5"><path d="M 0 0 L 91.003906 0 L 91.003906 91.003906 L 0 91.003906 Z M 0 0 " clip-rule="nonzero"/></clipPath><clipPath id="a12b7554ef"><path d="M 0 0 L 90.507812 0 L 90.507812 90.507812 L 0 90.507812 Z M 0 0 " clip-rule="nonzero"/></clipPath><clipPath id="dffcc882f4"><rect x="0" width="91" y="0" height="91"/></clipPath></defs><g clip-path="url(#a09d1b02d5)"><path fill="#ffffff" d="M 0 0 L 91.003906 0 L 91.003906 91.003906 L 0 91.003906 Z M 0 0 " fill-opacity="1" fill-rule="nonzero"/></g><g transform="matrix(1, 0, 0, 1, 0, 0)"><g clip-path="url(#dffcc882f4)"><g clip-path="url(#a12b7554ef)"><path fill="#ffffff" d="M 0 0 L 90.507812 0 L 90.507812 90.507812 L 0 90.507812 Z M 0 0 " fill-opacity="1" fill-rule="nonzero"/></g><path stroke-linecap="butt" transform="matrix(2.446185, 0, 0, 2.446185, 0.0000015, 0.0000000000000106)" fill-opacity="1" fill="#ffffff" fill-rule="nonzero" stroke-linejoin="miter" d="M 1.999286 2.500705 L 8.999983 2.500705 M 12.00051 2.500705 L 14.99944 2.500705 M 17.999967 2.500705 L 18.99961 2.500705 M 21.000494 2.500705 L 26.000307 2.500705 M 27.999594 2.500705 L 35.000291 2.500705 M 1.999286 3.500349 L 3.000526 3.500349 M 8.00034 3.500349 L 8.999983 3.500349 M 13.000153 3.500349 L 13.999797 3.500349 M 17.000323 3.500349 L 18.99961 3.500349 M 19.999253 3.500349 L 21.000494 3.500349 M 22.000137 3.500349 L 23.999424 3.500349 M 27.999594 3.500349 L 28.999237 3.500349 M 34.000647 3.500349 L 35.000291 3.500349 M 1.999286 4.499992 L 3.000526 4.499992 M 4.00017 4.499992 L 7.000696 4.499992 M 8.00034 4.499992 L 8.999983 4.499992 M 9.999626 4.499992 L 10.99927 4.499992 M 12.00051 4.499992 L 13.000153 4.499992 M 13.999797 4.499992 L 14.99944 4.499992 M 16.00068 4.499992 L 18.99961 4.499992 M 22.99978 4.499992 L 25.000664 4.499992 M 27.999594 4.499992 L 28.999237 4.499992 M 30.000477 4.499992 L 32.999407 4.499992 M 34.000647 4.499992 L 35.000291 4.499992 M 1.999286 5.499635 L 3.000526 5.499635 M 4.00017 5.499635 L 7.000696 5.499635 M 8.00034 5.499635 L 8.999983 5.499635 M 9.999626 5.499635 L 10.99927 5.499635 M 13.000153 5.499635 L 13.999797 5.499635 M 17.000323 5.499635 L 17.999967 5.499635 M 19.999253 5.499635 L 22.000137 5.499635 M 23.999424 5.499635 L 26.99995 5.499635 M 27.999594 5.499635 L 28.999237 5.499635 M 30.000477 5.499635 L 32.999407 5.499635 M 34.000647 5.499635 L 35.000291 5.499635 M 1.999286 6.499278 L 3.000526 6.499278 M 4.00017 6.499278 L 7.000696 6.499278 M 8.00034 6.499278 L 8.999983 6.499278 M 9.999626 6.499278 L 13.999797 6.499278 M 14.99944 6.499278 L 18.99961 6.499278 M 22.000137 6.499278 L 26.000307 6.499278 M 27.999594 6.499278 L 28.999237 6.499278 M 30.000477 6.499278 L 32.999407 6.499278 M 34.000647 6.499278 L 35.000291 6.499278 M 1.999286 7.500519 L 3.000526 7.500519 M 8.00034 7.500519 L 8.999983 7.500519 M 9.999626 7.500519 L 10.99927 7.500519 M 14.99944 7.500519 L 17.000323 7.500519 M 18.99961 7.500519 L 22.000137 7.500519 M 27.999594 7.500519 L 28.999237 7.500519 M 34.000647 7.500519 L 35.000291 7.500519 M 1.999286 8.500162 L 8.999983 8.500162 M 9.999626 8.500162 L 10.99927 8.500162 M 12.00051 8.500162 L 13.000153 8.500162 M 13.999797 8.500162 L 14.99944 8.500162 M 16.00068 8.500162 L 17.000323 8.500162 M 17.999967 8.500162 L 18.99961 8.500162 M 19.999253 8.500162 L 21.000494 8.500162 M 22.000137 8.500162 L 22.99978 8.500162 M 23.999424 8.500162 L 25.000664 8.500162 M 26.000307 8.500162 L 26.99995 8.500162 M 27.999594 8.500162 L 35.000291 8.500162 M 9.999626 9.499805 L 10.99927 9.499805 M 12.00051 9.499805 L 13.999797 9.499805 M 17.999967 9.499805 L 18.99961 9.499805 M 19.999253 9.499805 L 26.000307 9.499805 M 1.999286 10.499449 L 3.000526 10.499449 M 4.00017 10.499449 L 8.999983 10.499449 M 14.99944 10.499449 L 17.000323 10.499449 M 18.99961 10.499449 L 19.999253 10.499449 M 21.000494 10.499449 L 22.000137 10.499449 M 23.999424 10.499449 L 25.000664 10.499449 M 26.000307 10.499449 L 26.99995 10.499449 M 27.999594 10.499449 L 32.999407 10.499449 M 3.000526 11.500689 L 4.999813 11.500689 M 5.999456 11.500689 L 8.00034 11.500689 M 8.999983 11.500689 L 12.00051 11.500689 M 14.99944 11.500689 L 17.000323 11.500689 M 17.999967 11.500689 L 22.99978 11.500689 M 25.000664 11.500689 L 26.99995 11.500689 M 27.999594 11.500689 L 30.000477 11.500689 M 31.000121 11.500689 L 35.000291 11.500689 M 1.999286 12.500332 L 4.999813 12.500332 M 5.999456 12.500332 L 7.000696 12.500332 M 8.00034 12.500332 L 10.99927 12.500332 M 13.000153 12.500332 L 13.999797 12.500332 M 14.99944 12.500332 L 17.999967 12.500332 M 18.99961 12.500332 L 19.999253 12.500332 M 22.000137 12.500332 L 23.999424 12.500332 M 26.99995 12.500332 L 28.999237 12.500332 M 30.000477 12.500332 L 31.000121 12.500332 M 31.999764 12.500332 L 34.000647 12.500332 M 1.999286 13.499976 L 4.00017 13.499976 M 4.999813 13.499976 L 5.999456 13.499976 M 7.000696 13.499976 L 8.00034 13.499976 M 10.99927 13.499976 L 13.999797 13.499976 M 14.99944 13.499976 L 16.00068 13.499976 M 17.000323 13.499976 L 21.000494 13.499976 M 22.000137 13.499976 L 25.000664 13.499976 M 26.000307 13.499976 L 26.99995 13.499976 M 27.999594 13.499976 L 28.999237 13.499976 M 30.000477 13.499976 L 34.000647 13.499976 M 3.000526 14.499619 L 4.00017 14.499619 M 4.999813 14.499619 L 7.000696 14.499619 M 8.00034 14.499619 L 8.999983 14.499619 M 10.99927 14.499619 L 12.00051 14.499619 M 13.000153 14.499619 L 13.999797 14.499619 M 16.00068 14.499619 L 17.000323 14.499619 M 17.999967 14.499619 L 18.99961 14.499619 M 26.99995 14.499619 L 27.999594 14.499619 M 28.999237 14.499619 L 31.999764 14.499619 M 34.000647 14.499619 L 35.000291 14.499619 M 3.000526 15.499262 L 4.00017 15.499262 M 8.999983 15.499262 L 9.999626 15.499262 M 10.99927 15.499262 L 13.000153 15.499262 M 13.999797 15.499262 L 16.00068 15.499262 M 17.000323 15.499262 L 17.999967 15.499262 M 18.99961 15.499262 L 21.000494 15.499262 M 22.99978 15.499262 L 23.999424 15.499262 M 25.000664 15.499262 L 26.000307 15.499262 M 26.99995 15.499262 L 30.000477 15.499262 M 31.999764 15.499262 L 35.000291 15.499262 M 7.000696 16.500502 L 8.999983 16.500502 M 9.999626 16.500502 L 10.99927 16.500502 M 12.00051 16.500502 L 13.000153 16.500502 M 14.99944 16.500502 L 18.99961 16.500502 M 19.999253 16.500502 L 21.000494 16.500502 M 22.000137 16.500502 L 23.999424 16.500502 M 26.000307 16.500502 L 30.000477 16.500502 M 32.999407 16.500502 L 34.000647 16.500502 M 3.000526 17.500146 L 5.999456 17.500146 M 7.000696 17.500146 L 8.00034 17.500146 M 8.999983 17.500146 L 9.999626 17.500146 M 10.99927 17.500146 L 12.00051 17.500146 M 13.000153 17.500146 L 14.99944 17.500146 M 16.00068 17.500146 L 17.999967 17.500146 M 21.000494 17.500146 L 25.000664 17.500146 M 26.99995 17.500146 L 30.000477 17.500146 M 31.000121 17.500146 L 32.999407 17.500146 M 3.000526 18.499789 L 4.00017 18.499789 M 5.999456 18.499789 L 7.000696 18.499789 M 8.00034 18.499789 L 10.99927 18.499789 M 12.00051 18.499789 L 13.000153 18.499789 M 13.999797 18.499789 L 14.99944 18.499789 M 16.00068 18.499789 L 17.999967 18.499789 M 18.99961 18.499789 L 19.999253 18.499789 M 21.000494 18.499789 L 22.99978 18.499789 M 25.000664 18.499789 L 27.999594 18.499789 M 28.999237 18.499789 L 31.999764 18.499789 M 34.000647 18.499789 L 35.000291 18.499789 M 1.999286 19.499432 L 4.00017 19.499432 M 4.999813 19.499432 L 5.999456 19.499432 M 7.000696 19.499432 L 8.00034 19.499432 M 8.999983 19.499432 L 9.999626 19.499432 M 13.999797 19.499432 L 16.00068 19.499432 M 17.999967 19.499432 L 18.99961 19.499432 M 19.999253 19.499432 L 22.99978 19.499432 M 25.000664 19.499432 L 26.000307 19.499432 M 26.99995 19.499432 L 30.000477 19.499432 M 31.000121 19.499432 L 32.999407 19.499432 M 34.000647 19.499432 L 35.000291 19.499432 M 4.00017 20.500673 L 8.999983 20.500673 M 9.999626 20.500673 L 12.00051 20.500673 M 13.000153 20.500673 L 13.999797 20.500673 M 14.99944 20.500673 L 18.99961 20.500673 M 19.999253 20.500673 L 21.000494 20.500673 M 22.000137 20.500673 L 22.99978 20.500673 M 23.999424 20.500673 L 25.000664 20.500673 M 26.000307 20.500673 L 26.99995 20.500673 M 28.999237 20.500673 L 31.000121 20.500673 M 31.999764 20.500673 L 34.000647 20.500673 M 1.999286 21.500316 L 3.000526 21.500316 M 4.00017 21.500316 L 4.999813 21.500316 M 5.999456 21.500316 L 8.00034 21.500316 M 10.99927 21.500316 L 12.00051 21.500316 M 13.000153 21.500316 L 13.999797 21.500316 M 16.00068 21.500316 L 17.000323 21.500316 M 22.99978 21.500316 L 23.999424 21.500316 M 26.000307 21.500316 L 26.99995 21.500316 M 27.999594 21.500316 L 34.000647 21.500316 M 4.999813 22.499959 L 5.999456 22.499959 M 8.00034 22.499959 L 9.999626 22.499959 M 12.00051 22.499959 L 13.999797 22.499959 M 14.99944 22.499959 L 16.00068 22.499959 M 17.000323 22.499959 L 17.999967 22.499959 M 19.999253 22.499959 L 21.000494 22.499959 M 23.999424 22.499959 L 27.999594 22.499959 M 30.000477 22.499959 L 31.999764 22.499959 M 32.999407 22.499959 L 34.000647 22.499959 M 1.999286 23.499603 L 3.000526 23.499603 M 4.00017 23.499603 L 7.000696 23.499603 M 8.999983 23.499603 L 10.99927 23.499603 M 12.00051 23.499603 L 13.000153 23.499603 M 14.99944 23.499603 L 18.99961 23.499603 M 21.000494 23.499603 L 22.000137 23.499603 M 25.000664 23.499603 L 26.000307 23.499603 M 27.999594 23.499603 L 28.999237 23.499603 M 34.000647 23.499603 L 35.000291 23.499603 M 1.999286 24.499246 L 3.000526 24.499246 M 4.999813 24.499246 L 9.999626 24.499246 M 10.99927 24.499246 L 12.00051 24.499246 M 13.999797 24.499246 L 14.99944 24.499246 M 16.00068 24.499246 L 17.000323 24.499246 M 22.99978 24.499246 L 25.000664 24.499246 M 31.000121 24.499246 L 34.000647 24.499246 M 1.999286 25.500486 L 3.000526 25.500486 M 4.999813 25.500486 L 5.999456 25.500486 M 9.999626 25.500486 L 12.00051 25.500486 M 13.999797 25.500486 L 14.99944 25.500486 M 16.00068 25.500486 L 17.000323 25.500486 M 17.999967 25.500486 L 18.99961 25.500486 M 22.99978 25.500486 L 25.000664 25.500486 M 26.000307 25.500486 L 28.999237 25.500486 M 31.999764 25.500486 L 35.000291 25.500486 M 1.999286 26.500129 L 3.000526 26.500129 M 4.999813 26.500129 L 7.000696 26.500129 M 8.00034 26.500129 L 8.999983 26.500129 M 9.999626 26.500129 L 10.99927 26.500129 M 13.999797 26.500129 L 16.00068 26.500129 M 17.999967 26.500129 L 19.999253 26.500129 M 22.000137 26.500129 L 22.99978 26.500129 M 23.999424 26.500129 L 31.000121 26.500129 M 9.999626 27.499773 L 12.00051 27.499773 M 13.999797 27.499773 L 17.000323 27.499773 M 17.999967 27.499773 L 19.999253 27.499773 M 21.000494 27.499773 L 23.999424 27.499773 M 26.000307 27.499773 L 26.99995 27.499773 M 30.000477 27.499773 L 31.000121 27.499773 M 31.999764 27.499773 L 35.000291 27.499773 M 1.999286 28.499416 L 8.999983 28.499416 M 12.00051 28.499416 L 13.999797 28.499416 M 14.99944 28.499416 L 19.999253 28.499416 M 22.99978 28.499416 L 23.999424 28.499416 M 25.000664 28.499416 L 26.99995 28.499416 M 27.999594 28.499416 L 28.999237 28.499416 M 30.000477 28.499416 L 31.000121 28.499416 M 31.999764 28.499416 L 34.000647 28.499416 M 1.999286 29.500656 L 3.000526 29.500656 M 8.00034 29.500656 L 8.999983 29.500656 M 9.999626 29.500656 L 10.99927 29.500656 M 13.000153 29.500656 L 26.99995 29.500656 M 30.000477 29.500656 L 34.000647 29.500656 M 1.999286 30.5003 L 3.000526 30.5003 M 4.00017 30.5003 L 7.000696 30.5003 M 8.00034 30.5003 L 8.999983 30.5003 M 9.999626 30.5003 L 10.99927 30.5003 M 12.00051 30.5003 L 13.999797 30.5003 M 14.99944 30.5003 L 16.00068 30.5003 M 17.999967 30.5003 L 18.99961 30.5003 M 21.000494 30.5003 L 22.99978 30.5003 M 23.999424 30.5003 L 25.000664 30.5003 M 26.000307 30.5003 L 31.999764 30.5003 M 1.999286 31.499943 L 3.000526 31.499943 M 4.00017 31.499943 L 7.000696 31.499943 M 8.00034 31.499943 L 8.999983 31.499943 M 9.999626 31.499943 L 10.99927 31.499943 M 12.00051 31.499943 L 13.000153 31.499943 M 14.99944 31.499943 L 17.999967 31.499943 M 19.999253 31.499943 L 22.99978 31.499943 M 23.999424 31.499943 L 27.999594 31.499943 M 30.000477 31.499943 L 31.999764 31.499943 M 32.999407 31.499943 L 35.000291 31.499943 M 1.999286 32.499586 L 3.000526 32.499586 M 4.00017 32.499586 L 7.000696 32.499586 M 8.00034 32.499586 L 8.999983 32.499586 M 9.999626 32.499586 L 10.99927 32.499586 M 13.000153 32.499586 L 14.99944 32.499586 M 16.00068 32.499586 L 21.000494 32.499586 M 22.99978 32.499586 L 23.999424 32.499586 M 25.000664 32.499586 L 26.99995 32.499586 M 27.999594 32.499586 L 30.000477 32.499586 M 1.999286 33.49923 L 3.000526 33.49923 M 8.00034 33.49923 L 8.999983 33.49923 M 10.99927 33.49923 L 13.999797 33.49923 M 14.99944 33.49923 L 16.00068 33.49923 M 17.000323 33.49923 L 17.999967 33.49923 M 22.99978 33.49923 L 25.000664 33.49923 M 30.000477 33.49923 L 32.999407 33.49923 M 1.999286 34.50047 L 8.999983 34.50047 M 9.999626 34.50047 L 13.000153 34.50047 M 13.999797 34.50047 L 16.00068 34.50047 M 17.000323 34.50047 L 17.999967 34.50047 M 18.99961 34.50047 L 21.000494 34.50047 M 23.999424 34.50047 L 27.999594 34.50047 M 28.999237 34.50047 L 30.000477 34.50047 M 31.000121 34.50047 L 31.999764 34.50047 M 32.999407 34.50047 L 34.000647 34.50047 " stroke="#000000" stroke-width="1" stroke-opacity="1" stroke-miterlimit="4"/></g></g></svg>
