<svg xmlns="http://www.w3.org/2000/svg" xmlns:xlink="http://www.w3.org/1999/xlink" width="138" zoomAndPan="magnify" viewBox="0 0 103.5 103.499997" height="138" preserveAspectRatio="xMidYMid meet" version="1.0"><defs><clipPath id="34ea1f6166"><path d="M 0 0 L 103.003906 0 L 103.003906 103.003906 L 0 103.003906 Z M 0 0 " clip-rule="nonzero"/></clipPath><clipPath id="d96722c2d2"><path d="M 0 0 L 102.714844 0 L 102.714844 102.714844 L 0 102.714844 Z M 0 0 " clip-rule="nonzero"/></clipPath><clipPath id="417790e6a3"><rect x="0" width="103" y="0" height="103"/></clipPath></defs><g clip-path="url(#34ea1f6166)"><path fill="#ffffff" d="M 0 0 L 103.003906 0 L 103.003906 103.003906 L 0 103.003906 Z M 0 0 " fill-opacity="1" fill-rule="nonzero"/></g><g><g clip-path="url(#417790e6a3)"><g clip-path="url(#d96722c2d2)"><path fill="#ffffff" d="M 0 0 L 102.714844 0 L 102.714844 102.714844 L 0 102.714844 Z M 0 0 " fill-opacity="1" fill-rule="nonzero"/></g><path stroke-linecap="butt" transform="matrix(2.776083, 0, 0, 2.776083, 0.0000015, 0.000000000000084855)" fill-opacity="1" fill="#ffffff" fill-rule="nonzero" stroke-linejoin="miter" d="M 1.9995 2.500431 L 8.999864 2.500431 M 10.000318 2.500431 L 10.999365 2.500431 M 13.000273 2.500431 L 13.99932 2.500431 M 14.999774 2.500431 L 16.000228 2.500431 M 17.999729 2.500431 L 26.000547 2.500431 M 28.000048 2.500431 L 35.000411 2.500431 M 1.9995 3.499478 L 2.999954 3.499478 M 7.99941 3.499478 L 8.999864 3.499478 M 10.000318 3.499478 L 10.999365 3.499478 M 13.99932 3.499478 L 16.000228 3.499478 M 20.000637 3.499478 L 20.999684 3.499478 M 23.000592 3.499478 L 26.999594 3.499478 M 28.000048 3.499478 L 29.000502 3.499478 M 33.999957 3.499478 L 35.000411 3.499478 M 1.9995 4.499932 L 2.999954 4.499932 M 4.000408 4.499932 L 7.000363 4.499932 M 7.99941 4.499932 L 8.999864 4.499932 M 11.999819 4.499932 L 14.999774 4.499932 M 19.000183 4.499932 L 20.000637 4.499932 M 20.999684 4.499932 L 23.000592 4.499932 M 26.000547 4.499932 L 26.999594 4.499932 M 28.000048 4.499932 L 29.000502 4.499932 M 29.999548 4.499932 L 32.999503 4.499932 M 33.999957 4.499932 L 35.000411 4.499932 M 1.9995 5.500386 L 2.999954 5.500386 M 4.000408 5.500386 L 7.000363 5.500386 M 7.99941 5.500386 L 8.999864 5.500386 M 10.000318 5.500386 L 11.999819 5.500386 M 13.000273 5.500386 L 13.99932 5.500386 M 16.000228 5.500386 L 17.000682 5.500386 M 17.999729 5.500386 L 19.000183 5.500386 M 23.999639 5.500386 L 26.000547 5.500386 M 28.000048 5.500386 L 29.000502 5.500386 M 29.999548 5.500386 L 32.999503 5.500386 M 33.999957 5.500386 L 35.000411 5.500386 M 1.9995 6.499433 L 2.999954 6.499433 M 4.000408 6.499433 L 7.000363 6.499433 M 7.99941 6.499433 L 8.999864 6.499433 M 10.999365 6.499433 L 11.999819 6.499433 M 16.000228 6.499433 L 17.000682 6.499433 M 22.000138 6.499433 L 23.000592 6.499433 M 26.000547 6.499433 L 26.999594 6.499433 M 28.000048 6.499433 L 29.000502 6.499433 M 29.999548 6.499433 L 32.999503 6.499433 M 33.999957 6.499433 L 35.000411 6.499433 M 1.9995 7.499887 L 2.999954 7.499887 M 7.99941 7.499887 L 8.999864 7.499887 M 13.99932 7.499887 L 17.000682 7.499887 M 20.999684 7.499887 L 25.000093 7.499887 M 28.000048 7.499887 L 29.000502 7.499887 M 33.999957 7.499887 L 35.000411 7.499887 M 1.9995 8.500341 L 8.999864 8.500341 M 10.000318 8.500341 L 10.999365 8.500341 M 11.999819 8.500341 L 13.000273 8.500341 M 13.99932 8.500341 L 14.999774 8.500341 M 16.000228 8.500341 L 17.000682 8.500341 M 17.999729 8.500341 L 19.000183 8.500341 M 20.000637 8.500341 L 20.999684 8.500341 M 22.000138 8.500341 L 23.000592 8.500341 M 23.999639 8.500341 L 25.000093 8.500341 M 26.000547 8.500341 L 26.999594 8.500341 M 28.000048 8.500341 L 35.000411 8.500341 M 10.000318 9.499388 L 10.999365 9.499388 M 19.000183 9.499388 L 22.000138 9.499388 M 23.999639 9.499388 L 26.999594 9.499388 M 1.9995 10.499842 L 2.999954 10.499842 M 4.000408 10.499842 L 5.999909 10.499842 M 7.000363 10.499842 L 10.000318 10.499842 M 13.99932 10.499842 L 14.999774 10.499842 M 16.000228 10.499842 L 17.000682 10.499842 M 17.999729 10.499842 L 20.999684 10.499842 M 22.000138 10.499842 L 23.999639 10.499842 M 25.000093 10.499842 L 26.000547 10.499842 M 28.000048 10.499842 L 29.000502 10.499842 M 31.000002 10.499842 L 32.000456 10.499842 M 32.999503 10.499842 L 35.000411 10.499842 M 4.000408 11.500296 L 5.999909 11.500296 M 8.999864 11.500296 L 10.000318 11.500296 M 11.999819 11.500296 L 13.000273 11.500296 M 13.99932 11.500296 L 14.999774 11.500296 M 17.999729 11.500296 L 19.000183 11.500296 M 20.999684 11.500296 L 23.999639 11.500296 M 25.000093 11.500296 L 26.999594 11.500296 M 28.000048 11.500296 L 29.999548 11.500296 M 31.000002 11.500296 L 32.999503 11.500296 M 33.999957 11.500296 L 35.000411 11.500296 M 4.000408 12.499343 L 4.999455 12.499343 M 7.000363 12.499343 L 8.999864 12.499343 M 10.000318 12.499343 L 11.999819 12.499343 M 13.000273 12.499343 L 13.99932 12.499343 M 16.000228 12.499343 L 17.000682 12.499343 M 17.999729 12.499343 L 20.000637 12.499343 M 25.000093 12.499343 L 26.999594 12.499343 M 28.000048 12.499343 L 32.000456 12.499343 M 32.999503 12.499343 L 35.000411 12.499343 M 4.999455 13.499797 L 7.000363 13.499797 M 8.999864 13.499797 L 10.000318 13.499797 M 11.999819 13.499797 L 19.000183 13.499797 M 20.000637 13.499797 L 22.000138 13.499797 M 26.999594 13.499797 L 28.000048 13.499797 M 29.000502 13.499797 L 29.999548 13.499797 M 31.000002 13.499797 L 32.000456 13.499797 M 1.9995 14.500251 L 4.000408 14.500251 M 4.999455 14.500251 L 5.999909 14.500251 M 7.99941 14.500251 L 8.999864 14.500251 M 10.000318 14.500251 L 10.999365 14.500251 M 13.000273 14.500251 L 13.99932 14.500251 M 17.000682 14.500251 L 17.999729 14.500251 M 20.000637 14.500251 L 20.999684 14.500251 M 23.999639 14.500251 L 25.000093 14.500251 M 26.000547 14.500251 L 26.999594 14.500251 M 29.999548 14.500251 L 32.000456 14.500251 M 32.999503 14.500251 L 33.999957 14.500251 M 1.9995 15.499298 L 7.99941 15.499298 M 8.999864 15.499298 L 13.99932 15.499298 M 17.999729 15.499298 L 23.000592 15.499298 M 23.999639 15.499298 L 25.000093 15.499298 M 26.000547 15.499298 L 26.999594 15.499298 M 29.000502 15.499298 L 29.999548 15.499298 M 31.000002 15.499298 L 33.999957 15.499298 M 2.999954 16.499752 L 4.999455 16.499752 M 7.000363 16.499752 L 8.999864 16.499752 M 10.000318 16.499752 L 13.000273 16.499752 M 13.99932 16.499752 L 14.999774 16.499752 M 17.000682 16.499752 L 20.000637 16.499752 M 20.999684 16.499752 L 22.000138 16.499752 M 23.999639 16.499752 L 25.000093 16.499752 M 26.000547 16.499752 L 26.999594 16.499752 M 28.000048 16.499752 L 32.000456 16.499752 M 4.999455 17.500206 L 7.99941 17.500206 M 10.999365 17.500206 L 11.999819 17.500206 M 13.000273 17.500206 L 13.99932 17.500206 M 17.999729 17.500206 L 19.000183 17.500206 M 20.000637 17.500206 L 20.999684 17.500206 M 23.000592 17.500206 L 25.000093 17.500206 M 26.000547 17.500206 L 29.000502 17.500206 M 31.000002 17.500206 L 32.999503 17.500206 M 2.999954 18.50066 L 4.000408 18.50066 M 7.99941 18.50066 L 8.999864 18.50066 M 13.000273 18.50066 L 13.99932 18.50066 M 14.999774 18.50066 L 16.000228 18.50066 M 17.000682 18.50066 L 19.000183 18.50066 M 20.000637 18.50066 L 20.999684 18.50066 M 23.000592 18.50066 L 23.999639 18.50066 M 26.999594 18.50066 L 29.000502 18.50066 M 29.999548 18.50066 L 31.000002 18.50066 M 32.000456 18.50066 L 32.999503 18.50066 M 1.9995 19.499707 L 2.999954 19.499707 M 4.000408 19.499707 L 7.99941 19.499707 M 8.999864 19.499707 L 10.999365 19.499707 M 11.999819 19.499707 L 13.000273 19.499707 M 16.000228 19.499707 L 17.999729 19.499707 M 19.000183 19.499707 L 20.000637 19.499707 M 22.000138 19.499707 L 26.999594 19.499707 M 28.000048 19.499707 L 29.000502 19.499707 M 29.999548 19.499707 L 32.000456 19.499707 M 33.999957 19.499707 L 35.000411 19.499707 M 1.9995 20.500161 L 2.999954 20.500161 M 7.99941 20.500161 L 10.000318 20.500161 M 10.999365 20.500161 L 13.000273 20.500161 M 13.99932 20.500161 L 14.999774 20.500161 M 17.000682 20.500161 L 20.000637 20.500161 M 22.000138 20.500161 L 23.999639 20.500161 M 26.000547 20.500161 L 31.000002 20.500161 M 32.000456 20.500161 L 33.999957 20.500161 M 2.999954 21.500615 L 4.000408 21.500615 M 4.999455 21.500615 L 5.999909 21.500615 M 10.000318 21.500615 L 10.999365 21.500615 M 11.999819 21.500615 L 13.000273 21.500615 M 13.99932 21.500615 L 16.000228 21.500615 M 17.999729 21.500615 L 19.000183 21.500615 M 22.000138 21.500615 L 23.000592 21.500615 M 23.999639 21.500615 L 26.000547 21.500615 M 29.999548 21.500615 L 31.000002 21.500615 M 32.999503 21.500615 L 35.000411 21.500615 M 2.999954 22.499662 L 7.000363 22.499662 M 7.99941 22.499662 L 8.999864 22.499662 M 10.999365 22.499662 L 11.999819 22.499662 M 13.000273 22.499662 L 13.99932 22.499662 M 16.000228 22.499662 L 17.999729 22.499662 M 20.000637 22.499662 L 20.999684 22.499662 M 22.000138 22.499662 L 26.000547 22.499662 M 29.000502 22.499662 L 29.999548 22.499662 M 31.000002 22.499662 L 33.999957 22.499662 M 1.9995 23.500116 L 4.000408 23.500116 M 4.999455 23.500116 L 5.999909 23.500116 M 11.999819 23.500116 L 13.99932 23.500116 M 17.000682 23.500116 L 17.999729 23.500116 M 19.000183 23.500116 L 23.000592 23.500116 M 25.000093 23.500116 L 26.000547 23.500116 M 26.999594 23.500116 L 29.000502 23.500116 M 32.000456 23.500116 L 32.999503 23.500116 M 33.999957 23.500116 L 35.000411 23.500116 M 4.999455 24.50057 L 7.000363 24.50057 M 7.99941 24.50057 L 10.000318 24.50057 M 10.999365 24.50057 L 11.999819 24.50057 M 13.99932 24.50057 L 14.999774 24.50057 M 16.000228 24.50057 L 17.000682 24.50057 M 17.999729 24.50057 L 20.000637 24.50057 M 22.000138 24.50057 L 23.000592 24.50057 M 23.999639 24.50057 L 26.999594 24.50057 M 28.000048 24.50057 L 29.000502 24.50057 M 29.999548 24.50057 L 35.000411 24.50057 M 2.999954 25.499617 L 4.999455 25.499617 M 5.999909 25.499617 L 7.99941 25.499617 M 8.999864 25.499617 L 10.000318 25.499617 M 13.000273 25.499617 L 13.99932 25.499617 M 14.999774 25.499617 L 16.000228 25.499617 M 17.999729 25.499617 L 19.000183 25.499617 M 20.000637 25.499617 L 22.000138 25.499617 M 28.000048 25.499617 L 29.999548 25.499617 M 31.000002 25.499617 L 32.000456 25.499617 M 32.999503 25.499617 L 33.999957 25.499617 M 1.9995 26.500071 L 2.999954 26.500071 M 4.000408 26.500071 L 5.999909 26.500071 M 7.99941 26.500071 L 10.999365 26.500071 M 11.999819 26.500071 L 13.000273 26.500071 M 13.99932 26.500071 L 17.999729 26.500071 M 19.000183 26.500071 L 20.000637 26.500071 M 23.999639 26.500071 L 25.000093 26.500071 M 26.000547 26.500071 L 32.000456 26.500071 M 32.999503 26.500071 L 33.999957 26.500071 M 10.000318 27.500525 L 10.999365 27.500525 M 13.000273 27.500525 L 13.99932 27.500525 M 16.000228 27.500525 L 17.999729 27.500525 M 19.000183 27.500525 L 20.000637 27.500525 M 20.999684 27.500525 L 22.000138 27.500525 M 23.000592 27.500525 L 23.999639 27.500525 M 25.000093 27.500525 L 26.999594 27.500525 M 29.999548 27.500525 L 32.000456 27.500525 M 32.999503 27.500525 L 33.999957 27.500525 M 1.9995 28.499572 L 8.999864 28.499572 M 10.000318 28.499572 L 10.999365 28.499572 M 11.999819 28.499572 L 13.000273 28.499572 M 13.99932 28.499572 L 16.000228 28.499572 M 20.999684 28.499572 L 22.000138 28.499572 M 23.000592 28.499572 L 23.999639 28.499572 M 25.000093 28.499572 L 26.999594 28.499572 M 28.000048 28.499572 L 29.000502 28.499572 M 29.999548 28.499572 L 31.000002 28.499572 M 1.9995 29.500026 L 2.999954 29.500026 M 7.99941 29.500026 L 8.999864 29.500026 M 10.000318 29.500026 L 11.999819 29.500026 M 14.999774 29.500026 L 16.000228 29.500026 M 20.999684 29.500026 L 23.999639 29.500026 M 25.000093 29.500026 L 26.999594 29.500026 M 29.999548 29.500026 L 32.999503 29.500026 M 33.999957 29.500026 L 35.000411 29.500026 M 1.9995 30.50048 L 2.999954 30.50048 M 4.000408 30.50048 L 7.000363 30.50048 M 7.99941 30.50048 L 8.999864 30.50048 M 11.999819 30.50048 L 13.000273 30.50048 M 14.999774 30.50048 L 17.000682 30.50048 M 19.000183 30.50048 L 20.000637 30.50048 M 20.999684 30.50048 L 22.000138 30.50048 M 23.000592 30.50048 L 31.000002 30.50048 M 32.000456 30.50048 L 33.999957 30.50048 M 1.9995 31.499526 L 2.999954 31.499526 M 4.000408 31.499526 L 7.000363 31.499526 M 7.99941 31.499526 L 8.999864 31.499526 M 10.000318 31.499526 L 11.999819 31.499526 M 14.999774 31.499526 L 17.000682 31.499526 M 20.000637 31.499526 L 20.999684 31.499526 M 22.000138 31.499526 L 26.000547 31.499526 M 29.000502 31.499526 L 29.999548 31.499526 M 32.000456 31.499526 L 32.999503 31.499526 M 33.999957 31.499526 L 35.000411 31.499526 M 1.9995 32.49998 L 2.999954 32.49998 M 4.000408 32.49998 L 7.000363 32.49998 M 7.99941 32.49998 L 8.999864 32.49998 M 10.000318 32.49998 L 13.000273 32.49998 M 13.99932 32.49998 L 17.000682 32.49998 M 22.000138 32.49998 L 23.999639 32.49998 M 25.000093 32.49998 L 26.999594 32.49998 M 28.000048 32.49998 L 29.999548 32.49998 M 31.000002 32.49998 L 32.999503 32.49998 M 1.9995 33.500434 L 2.999954 33.500434 M 7.99941 33.500434 L 8.999864 33.500434 M 10.999365 33.500434 L 13.99932 33.500434 M 14.999774 33.500434 L 20.999684 33.500434 M 22.000138 33.500434 L 23.000592 33.500434 M 23.999639 33.500434 L 26.999594 33.500434 M 28.000048 33.500434 L 32.000456 33.500434 M 33.999957 33.500434 L 35.000411 33.500434 M 1.9995 34.499481 L 8.999864 34.499481 M 10.000318 34.499481 L 10.999365 34.499481 M 11.999819 34.499481 L 13.99932 34.499481 M 17.000682 34.499481 L 17.999729 34.499481 M 19.000183 34.499481 L 22.000138 34.499481 M 23.000592 34.499481 L 23.999639 34.499481 M 25.000093 34.499481 L 26.000547 34.499481 M 26.999594 34.499481 L 29.000502 34.499481 M 29.999548 34.499481 L 31.000002 34.499481 M 32.000456 34.499481 L 32.999503 34.499481 " stroke="#000000" stroke-width="1" stroke-opacity="1" stroke-miterlimit="4"/></g></g></svg>